<svg xmlns="http://www.w3.org/2000/svg" viewBox="0 -17.4 195.95 195.95">
  <path fill="#755CFE" d="M183.1,110.54c.97.56.97,1.96,0,2.52l-82.94,47.89c-.97.56-2.18-.14-2.18-1.26v-47.05c0-.52-.28-1-.73-1.26l-40.74-23.52c-.97-.56-.97-1.96,0-2.52l40.74-23.52c.45-.26,1-.26,1.45,0l84.4,48.73ZM87.13,117.22c.45.26.73.74.73,1.26v35.36c0,1.12-1.21,1.82-2.18,1.26L12.85,113.05c-.97-.56-.97-1.96,0-2.52l30.63-17.68c.45-.26,1-.26,1.45,0l42.2,24.36Z"/>
  <defs>
    <mask id="m" maskUnits="userSpaceOnUse" x="0" y="0" width="195.95" height="122.77">
      <path fill="white" d="M99.23,11.71l84.79,48.95c.7.4.7,1.05,0,1.45l-84.79,48.95c-.7.4-1.82.4-2.52,0L11.93,62.11c-.7-.4-.7-1.05,0-1.45L96.71,11.71c.7-.4,1.82-.4,2.52,0Z"/>
    </mask>
  </defs>
  <g mask="url(#m)">
    <path fill="none" stroke="#755CFE" stroke-width="22.81" d="M99.23,11.71l84.79,48.95c.7.4.7,1.05,0,1.45l-84.79,48.95c-.7.4-1.82.4-2.52,0L11.93,62.11c-.7-.4-.7-1.05,0-1.45L96.71,11.71c.7-.4,1.82-.4,2.52,0Z"/>
  </g>
</svg>
