<svg width="1351" height="412" viewBox="0 0 1351 412" fill="none" xmlns="http://www.w3.org/2000/svg">
<path d="M582.911 201.124C585.291 198.537 587.792 195.827 590.391 193.014M590.391 193.014C603.639 178.678 619.465 161.66 635.1 144.463M590.391 193.014C600.57 214.722 634.484 227.874 653.979 232.891C691.673 242.592 736.202 241.747 774.115 227.482M590.391 193.014C587.004 185.79 586.245 177.618 589.521 168.483C596.466 149.118 615.628 143.572 635.1 144.463M635.1 144.463C649.074 129.094 662.894 113.583 674.586 99.7169M635.1 144.463C648.436 145.074 661.917 148.703 671.719 152.98C710.561 169.929 739.656 202.894 774.115 227.482M674.586 99.7169C677.257 96.5496 679.817 93.4682 682.242 90.494C687.296 84.2947 705.628 62.5632 707.656 49.184C708.981 40.4447 695.412 43.3233 692.182 45.6831C677.556 56.3692 671.524 79.611 674.586 99.7169ZM674.586 99.7169C676.283 110.86 680.773 121.039 688.141 127.585C722.212 157.854 770.865 131.565 797.056 104.751C825.427 75.7051 840.898 34.9369 869.851 7.06302C878.658 -1.41572 875.527 55.6439 875.167 59.749C870.528 112.679 855.538 173.353 811.239 207.201C800.086 215.722 787.513 222.44 774.115 227.482M774.115 227.482C782.483 233.453 791.168 238.93 800.386 243.564C830.574 258.74 877.621 261.288 895.493 225.681C897.45 221.781 898.619 217.625 898.958 213.635M898.958 213.635C900.004 201.328 893.159 190.602 877.227 193.862C862.769 196.82 843.582 213.242 847.698 229.921C852.373 248.87 884.317 226.236 891.416 220.204C893.956 218.045 896.481 215.865 898.958 213.635ZM898.958 213.635C902.438 210.5 905.826 207.265 909.031 203.846C909.41 203.442 916.326 196.804 916.337 196.963C916.865 204.446 907.528 215.668 906.96 224.372C906.38 233.262 908.073 248.031 916.302 253.551C925.467 259.698 937.752 227.549 940.248 222.841C941.503 220.473 951.295 199.416 955.747 201.089C960.089 202.72 959.975 228.083 960.792 231.999C962.216 238.818 966.293 260.382 977.437 253.289C991.274 244.482 1000.96 223.285 1009.4 209.709C1012.3 205.046 1020.47 186.087 1021.02 200.457C1021.37 209.517 1019.67 230.345 1028.51 236.235C1039.19 243.347 1073.25 195.295 1077.23 205.931C1080.1 213.591 1074.52 231.113 1081.2 236.61C1084.39 239.235 1103.61 212.338 1107.09 209.364C1117.73 200.267 1121.42 215.37 1125.9 222.614C1134.31 236.21 1150.96 213.399 1161.28 212.855C1168.49 212.474 1170.7 223.348 1175.37 227.053C1188.96 237.835 1213.3 233.356 1228.72 230.519L1229.11 230.446C1269.84 222.954 1311.38 206.708 1344.86 182.14M1044 145.392C1053.04 142.883 1080.42 130.507 1089.75 141.447C1090.49 142.312 1090.96 143.271 1091.22 144.285M1091.22 144.285C1092.53 149.38 1088.44 155.886 1085.51 159.122C1082.68 162.25 1069.32 171.463 1067.29 162.634C1065.18 153.458 1082.99 138.225 1091.22 144.285ZM1091.22 144.285C1091.51 144.492 1091.78 144.724 1092.03 144.982M6.48083 307.947C308.108 304.49 609.865 305.782 911.507 306.347C1008.03 306.528 1104.99 305.533 1201.36 312.6C1230.49 314.736 1291.59 312.917 1319.07 329.844C1325.68 333.912 1306.39 339.521 1298.86 341.388C1259.52 351.144 1218.77 355.496 1178.73 361.221C1090.63 373.817 1003.1 388.494 915.723 405.306M171 54.2513C134.5 50.4647 116.861 57.4191 80.551 89.1706C63.4462 104.128 46.541 127.624 37.1729 151.085C22.2538 188.448 29.3381 227.57 57.4634 243.547C83.3026 258.226 126.068 250.523 160.422 229.546M160.422 229.546C184.106 215.085 208 209.5 208 180.5C208 151.5 177 150 160.422 168.483C140.593 190.591 144.465 215.195 160.422 229.546ZM160.422 229.546C174.648 242.341 197.66 244.392 220.993 233.133C255.951 216.265 287.569 181.724 313.306 144.83C315.291 141.985 317.569 138.775 320.028 135.271M320.028 135.271C335.871 112.701 359.23 77.977 360.146 50.4647C360.385 43.3111 352.24 53.4865 351.675 54.2513C338.472 72.1233 329.664 98.1673 323.316 121.208C322.297 124.907 321.141 129.745 320.028 135.271ZM320.028 135.271C313.568 167.335 308.541 222.556 339.936 212.802C367.576 204.215 400.891 164.098 419.394 129.576M419.394 129.576C421.209 126.189 422.882 122.855 424.393 119.611C425.211 117.853 422.773 122.424 419.394 129.576ZM419.394 129.576C414.261 140.439 406.96 157.259 405.607 166.906C397.483 224.863 442.677 236.131 475.143 221.058C500.952 209.076 524.986 185.849 543.432 157.674" stroke="black" stroke-width="12" stroke-linecap="round"/>
</svg>
